<svg xmlns="http://www.w3.org/2000/svg" xmlns:xlink="http://www.w3.org/1999/xlink" width="1920" height="1080" viewBox="0 0 1920 1080">
  <defs>
    <rect id="group-8-a" width="1920" height="1080"/>
    <linearGradient id="group-8-c" x1="23.297%" x2="70.145%" y1="17.755%" y2="12.754%">
      <stop offset="0%" stop-color="#11CEC2"/>
      <stop offset="100%" stop-color="#79A8FF"/>
    </linearGradient>
    <linearGradient id="group-8-d" x1="9.292%" x2="70.145%" y1="20.4%" y2="12.754%">
      <stop offset="0%" stop-color="#1BB6AC"/>
      <stop offset="100%" stop-color="#4C82E6"/>
    </linearGradient>
  </defs>
  <g fill="none" fill-rule="evenodd" transform="matrix(1 0 0 -1 0 1080)">
    <mask id="group-8-b" fill="#fff">
      <use xlink:href="#group-8-a"/>
    </mask>
    <use fill="#FFF" xlink:href="#group-8-a"/>
    <g mask="url(#group-8-b)" opacity=".87">
      <g transform="translate(-388 -239)">
        <path fill="url(#group-8-c)" d="M1083.17019,644.405257 C968.668274,648.739006 893.630048,658.052622 828.980825,642.486109 C743.614307,621.931199 676.840224,573.576508 565.964727,567.067457 C371.121712,555.629013 366.041956,589.801982 220.294407,602.116815 C74.5468584,614.431648 -59.3693801,563.630431 -59.3693801,563.630431 L-149.973982,879.60623 L949.53934,1173.27633 C949.53934,1173.27633 1348.86696,634.348979 1083.17019,644.405257 Z" opacity=".494" style="mix-blend-mode:overlay" transform="rotate(74 512.204 868.453)"/>
        <path fill="url(#group-8-c)" d="M1053.17019,634.405257 C787.47342,644.461534 730.807743,568.505901 535.964727,557.067457 C341.121712,545.629013 336.041956,579.801982 190.294407,592.116815 C44.5468584,604.431648 -89.3693801,553.630431 -89.3693801,553.630431 L-179.973982,869.60623 L919.53934,1163.27633 C919.53934,1163.27633 1318.86696,624.348979 1053.17019,634.405257 Z" opacity=".494" style="mix-blend-mode:overlay" transform="rotate(79 482.204 858.453)"/>
        <path fill="url(#group-8-d)" d="M1107.74022,572.499896 C989.999142,576.956242 913.635247,489.581221 767.51972,472.781461 C621.404192,455.981701 524.325991,494.720091 432.054205,489.303188 C253.439532,478.817444 246.368032,481.493411 112.759697,492.78255 C-20.8486374,504.071689 -143.611084,457.501671 -143.611084,457.501671 L-226.66929,747.16006 L1021.84408,1079.7552 C1021.84408,1079.7552 1351.30728,563.281199 1107.74022,572.499896 Z" opacity=".788" style="mix-blend-mode:overlay" transform="rotate(75 485.401 768.628)"/>
      </g>
    </g>
  </g>
</svg>
